<svg xmlns="http://www.w3.org/2000/svg" viewBox="0 0 1600 900" role="img" aria-labelledby="title desc">
  <title id="title">NectarSolutions.ai — Hero (Marketing Light)</title>
  <desc id="desc">Light blue gradient with subtle honeycomb and soft golden accents to match blue/purple UI.</desc>
  <defs>
    <linearGradient id="bg" x1="0%" y1="0%" x2="100%" y2="100%">
      <stop offset="0%" stop-color="#F8FBFF"/>
      <stop offset="60%" stop-color="#EAF2FF"/>
      <stop offset="100%" stop-color="#E6ECFF"/>
    </linearGradient>
    <radialGradient id="softBlue" cx="70%" cy="28%" r="50%">
      <stop offset="0%" stop-color="#B3D4FF" stop-opacity="0.45"/>
      <stop offset="70%" stop-color="#A5B4FC" stop-opacity="0.15"/>
      <stop offset="100%" stop-color="#A5B4FC" stop-opacity="0"/>
    </radialGradient>
    <linearGradient id="nectarLine" x1="0" y1="0" x2="1" y2="0">
      <stop offset="0%" stop-color="#FFD54F" stop-opacity="0"/>
      <stop offset="35%" stop-color="#FFD54F" stop-opacity="0.7"/>
      <stop offset="70%" stop-color="#FFB300" stop-opacity="0.7"/>
      <stop offset="100%" stop-color="#FF8F00" stop-opacity="0"/>
    </linearGradient>
    <pattern id="hex" width="80" height="69.282" patternUnits="userSpaceOnUse">
      <g fill="none" stroke="#3B82F6" stroke-width="1" opacity="0.2">
        <path d="M20,0 60,0 80,34.641 60,69.282 20,69.282 0,34.641 Z"/>
      </g>
    </pattern>
    <filter id="soft" x="-20%" y="-20%" width="140%" height="140%">
      <feGaussianBlur stdDeviation="10"/>
    </filter>
  </defs>

  <rect width="100%" height="100%" fill="url(#bg)"/>
  <rect width="100%" height="100%" fill="url(#hex)"/>
  <circle cx="1120" cy="260" r="420" fill="url(#softBlue)" filter="url(#soft)"/>

  <g stroke-linecap="round" fill="none">
    <path d="M-50 600 C 200 540, 420 520, 700 560 S 1180 650, 1650 520" stroke="url(#nectarLine)" stroke-width="5" opacity="0.6"/>
    <path d="M-50 660 C 250 630, 520 600, 800 640 S 1280 720, 1650 590" stroke="url(#nectarLine)" stroke-width="3" opacity="0.45"/>
  </g>
</svg>

