<svg xmlns="http://www.w3.org/2000/svg" viewBox="0 0 160 160" role="img" aria-labelledby="title desc">
  <title id="title">NectarSolutions.ai — Mark</title>
  <desc id="desc">Honeycomb hexagon with nectar droplet. Transparent background.</desc>
  <defs>
    <linearGradient id="honeyMark" x1="0%" y1="0%" x2="100%" y2="100%">
      <stop offset="0%" stop-color="#FFD54F"/>
      <stop offset="50%" stop-color="#FFB300"/>
      <stop offset="100%" stop-color="#FF8F00"/>
    </linearGradient>
    <linearGradient id="glowMark" x1="0" y1="0" x2="1" y2="1">
      <stop offset="0%" stop-color="#FFF8E1" stop-opacity="0.9"/>
      <stop offset="100%" stop-color="#FFF8E1" stop-opacity="0"/>
    </linearGradient>
  </defs>
  <g transform="translate(20,10)">
    <path d="M60,0 120,35 120,105 60,140 0,105 0,35 Z" fill="url(#honeyMark)"/>
    <path d="M60,0 120,35 120,105 60,140 0,105 0,35 Z" fill="none" stroke="#FF6F00" stroke-width="2" opacity="0.6"/>
    <g transform="translate(60,68)">
      <path d="M0,-24 C8,-24 14,-17 14,-9 C14,3 0,18 0,18 C0,18 -14,3 -14,-9 C-14,-17 -8,-24 0,-24 Z" fill="#FFFFFF" opacity="0.95"/>
      <circle cx="6" cy="-14" r="4" fill="url(#glowMark)"/>
    </g>
  </g>
</svg>

